HIERARCHY
ROOT mixamorig:Hips
{
	OFFSET 0.000000 201.639420 0.000000
	CHANNELS 6 Xposition Yposition Zposition Xrotation Yrotation Zrotation
	JOINT mixamorig:Spine
	{
		OFFSET 0.006200 19.524994 -2.481800
		CHANNELS 3 Xrotation Yrotation Zrotation
		JOINT mixamorig:Spine1
		{
			OFFSET -0.000900 22.835007 -2.825400
			CHANNELS 3 Xrotation Yrotation Zrotation
			JOINT mixamorig:Spine2
			{
				OFFSET -0.020600 26.552490 -3.193300
				CHANNELS 3 Xrotation Yrotation Zrotation
				JOINT mixamorig:Neck
				{
					OFFSET -0.060000 30.701813 1.352200
					CHANNELS 3 Xrotation Yrotation Zrotation
					JOINT mixamorig:Head
					{
						OFFSET -0.087200 22.547607 3.670900
						CHANNELS 3 Xrotation Yrotation Zrotation
						JOINT mixamorig:HeadTop_End
						{
							OFFSET -0.830600 40.355194 7.893500
							CHANNELS 3 Xrotation Yrotation Zrotation
							End Site
							{
								OFFSET 0.000000 30.592346 0.000000
							}
						}
						JOINT mixamorig:RightEye
						{
							OFFSET -6.302100 18.118591 16.197100
							CHANNELS 3 Xrotation Yrotation Zrotation
							End Site
							{
								OFFSET 0.000000 30.592346 0.000000
							}
						}
						JOINT mixamorig:LeftEye
						{
							OFFSET 6.741500 18.382690 16.401899
							CHANNELS 3 Xrotation Yrotation Zrotation
							End Site
							{
								OFFSET 0.000000 30.592346 0.000000
							}
						}
					}
				}
				JOINT mixamorig:LeftShoulder
				{
					OFFSET 11.924900 18.230499 1.425400
					CHANNELS 3 Xrotation Yrotation Zrotation
					JOINT mixamorig:LeftArm
					{
						OFFSET 25.435989 -0.697632 -5.229300
						CHANNELS 3 Xrotation Yrotation Zrotation
						JOINT mixamorig:LeftForeArm
						{
							OFFSET 54.684776 0.000000 0.000000
							CHANNELS 3 Xrotation Yrotation Zrotation
							JOINT mixamorig:LeftHand
							{
								OFFSET 55.098175 0.000000 0.000000
								CHANNELS 3 Xrotation Yrotation Zrotation
								JOINT mixamorig:LeftHandMiddle1
								{
									OFFSET 23.369751 0.000000 0.000000
									CHANNELS 3 Xrotation Yrotation Zrotation
									JOINT mixamorig:LeftHandMiddle2
									{
										OFFSET 6.378677 0.000000 0.000000
										CHANNELS 3 Xrotation Yrotation Zrotation
										JOINT mixamorig:LeftHandMiddle3
										{
											OFFSET 6.148331 0.000000 0.000000
											CHANNELS 3 Xrotation Yrotation Zrotation
											JOINT mixamorig:LeftHandMiddle4
											{
												OFFSET 6.582504 0.000000 0.000000
												CHANNELS 3 Xrotation Yrotation Zrotation
												End Site
												{
													OFFSET -1.168900 6.395691 1.028606
												}
											}
										}
									}
								}
								JOINT mixamorig:LeftHandThumb1
								{
									OFFSET 7.235672 -3.848206 5.434273
									CHANNELS 3 Xrotation Yrotation Zrotation
									JOINT mixamorig:LeftHandThumb2
									{
										OFFSET 6.568451 -3.792297 3.792300
										CHANNELS 3 Xrotation Yrotation Zrotation
										JOINT mixamorig:LeftHandThumb3
										{
											OFFSET 6.063080 -3.500519 3.500518
											CHANNELS 3 Xrotation Yrotation Zrotation
											JOINT mixamorig:LeftHandThumb4
											{
												OFFSET 4.793182 -2.767334 2.767349
												CHANNELS 3 Xrotation Yrotation Zrotation
												End Site
												{
													OFFSET 0.101639 6.054260 1.275483
												}
											}
										}
									}
								}
								JOINT mixamorig:LeftHandIndex1
								{
									OFFSET 23.101074 -0.309540 4.992809
									CHANNELS 3 Xrotation Yrotation Zrotation
									JOINT mixamorig:LeftHandIndex2
									{
										OFFSET 6.226883 0.000000 0.000000
										CHANNELS 3 Xrotation Yrotation Zrotation
										JOINT mixamorig:LeftHandIndex3
										{
											OFFSET 6.094330 0.000000 0.000000
											CHANNELS 3 Xrotation Yrotation Zrotation
											JOINT mixamorig:LeftHandIndex4
											{
												OFFSET 5.482605 0.000000 0.000000
												CHANNELS 3 Xrotation Yrotation Zrotation
												End Site
												{
													OFFSET -1.427902 5.233032 0.797164
												}
											}
										}
									}
								}
								JOINT mixamorig:LeftHandRing1
								{
									OFFSET 22.299240 0.021149 -3.964172
									CHANNELS 3 Xrotation Yrotation Zrotation
									JOINT mixamorig:LeftHandRing2
									{
										OFFSET 6.321869 0.000000 0.000000
										CHANNELS 3 Xrotation Yrotation Zrotation
										JOINT mixamorig:LeftHandRing3
										{
											OFFSET 5.899796 0.000000 0.000000
											CHANNELS 3 Xrotation Yrotation Zrotation
											JOINT mixamorig:LeftHandRing4
											{
												OFFSET 6.517899 0.000000 0.000000
												CHANNELS 3 Xrotation Yrotation Zrotation
												End Site
												{
													OFFSET -1.637299 6.232208 0.980890
												}
											}
										}
									}
								}
								JOINT mixamorig:LeftHandPinky1
								{
									OFFSET 20.463791 -0.302338 -8.562233
									CHANNELS 3 Xrotation Yrotation Zrotation
									JOINT mixamorig:LeftHandPinky2
									{
										OFFSET 6.908646 0.000000 0.000000
										CHANNELS 3 Xrotation Yrotation Zrotation
										JOINT mixamorig:LeftHandPinky3
										{
											OFFSET 4.622849 0.000000 0.000000
											CHANNELS 3 Xrotation Yrotation Zrotation
											JOINT mixamorig:LeftHandPinky4
											{
												OFFSET 5.216080 0.000000 0.000000
												CHANNELS 3 Xrotation Yrotation Zrotation
												End Site
												{
													OFFSET -0.606308 5.116241 0.814926
												}
											}
										}
									}
								}
							}
						}
					}
				}
				JOINT mixamorig:RightShoulder
				{
					OFFSET -12.001300 18.284088 1.348900
					CHANNELS 3 Xrotation Yrotation Zrotation
					JOINT mixamorig:RightArm
					{
						OFFSET -25.308500 -0.751312 -5.164599
						CHANNELS 3 Xrotation Yrotation Zrotation
						JOINT mixamorig:RightForeArm
						{
							OFFSET -54.684429 0.000000 0.000000
							CHANNELS 3 Xrotation Yrotation Zrotation
							JOINT mixamorig:RightHand
							{
								OFFSET -55.150291 0.000000 0.000000
								CHANNELS 3 Xrotation Yrotation Zrotation
								JOINT mixamorig:RightHandMiddle1
								{
									OFFSET -23.317566 0.000000 0.000000
									CHANNELS 3 Xrotation Yrotation Zrotation
									JOINT mixamorig:RightHandMiddle2
									{
										OFFSET -6.378403 0.000000 0.000000
										CHANNELS 3 Xrotation Yrotation Zrotation
										JOINT mixamorig:RightHandMiddle3
										{
											OFFSET -6.148193 0.000000 0.000000
											CHANNELS 3 Xrotation Yrotation Zrotation
											JOINT mixamorig:RightHandMiddle4
											{
												OFFSET -6.583389 0.000000 0.000000
												CHANNELS 3 Xrotation Yrotation Zrotation
												End Site
												{
													OFFSET 1.171692 6.395905 1.029786
												}
											}
										}
									}
								}
								JOINT mixamorig:RightHandThumb1
								{
									OFFSET -7.190521 -3.860474 5.435846
									CHANNELS 3 Xrotation Yrotation Zrotation
									JOINT mixamorig:RightHandThumb2
									{
										OFFSET -6.567429 -3.791718 3.791708
										CHANNELS 3 Xrotation Yrotation Zrotation
										JOINT mixamorig:RightHandThumb3
										{
											OFFSET -6.062469 -3.500153 3.500166
											CHANNELS 3 Xrotation Yrotation Zrotation
											JOINT mixamorig:RightHandThumb4
											{
												OFFSET -4.792618 -2.767029 2.767022
												CHANNELS 3 Xrotation Yrotation Zrotation
												End Site
												{
													OFFSET -0.100327 6.053253 1.276754
												}
											}
										}
									}
								}
								JOINT mixamorig:RightHandIndex1
								{
									OFFSET -23.048981 -0.310791 4.992554
									CHANNELS 3 Xrotation Yrotation Zrotation
									JOINT mixamorig:RightHandIndex2
									{
										OFFSET -6.227539 0.000000 0.000000
										CHANNELS 3 Xrotation Yrotation Zrotation
										JOINT mixamorig:RightHandIndex3
										{
											OFFSET -6.095047 0.000000 0.000000
											CHANNELS 3 Xrotation Yrotation Zrotation
											JOINT mixamorig:RightHandIndex4
											{
												OFFSET -5.484772 0.000000 0.000000
												CHANNELS 3 Xrotation Yrotation Zrotation
												End Site
												{
													OFFSET 1.420593 5.237305 0.797056
												}
											}
										}
									}
								}
								JOINT mixamorig:RightHandRing1
								{
									OFFSET -22.246323 0.020569 -3.963762
									CHANNELS 3 Xrotation Yrotation Zrotation
									JOINT mixamorig:RightHandRing2
									{
										OFFSET -6.322128 0.000000 0.000000
										CHANNELS 3 Xrotation Yrotation Zrotation
										JOINT mixamorig:RightHandRing3
										{
											OFFSET -5.900024 0.000000 0.000000
											CHANNELS 3 Xrotation Yrotation Zrotation
											JOINT mixamorig:RightHandRing4
											{
												OFFSET -6.518356 0.000000 0.000000
												CHANNELS 3 Xrotation Yrotation Zrotation
												End Site
												{
													OFFSET 1.636398 6.232697 0.982186
												}
											}
										}
									}
								}
								JOINT mixamorig:RightHandPinky1
								{
									OFFSET -20.411011 -0.303314 -8.561701
									CHANNELS 3 Xrotation Yrotation Zrotation
									JOINT mixamorig:RightHandPinky2
									{
										OFFSET -6.907349 0.000000 0.000000
										CHANNELS 3 Xrotation Yrotation Zrotation
										JOINT mixamorig:RightHandPinky3
										{
											OFFSET -4.623840 0.000000 0.000000
											CHANNELS 3 Xrotation Yrotation Zrotation
											JOINT mixamorig:RightHandPinky4
											{
												OFFSET -5.218353 0.000000 0.000000
												CHANNELS 3 Xrotation Yrotation Zrotation
												End Site
												{
													OFFSET 0.602097 5.118835 0.816273
												}
											}
										}
									}
								}
							}
						}
					}
				}
			}
		}
	}
	JOINT mixamorig:LeftUpLeg
	{
		OFFSET 18.168400 -13.561905 -0.039000
		CHANNELS 3 Xrotation Yrotation Zrotation
		JOINT mixamorig:LeftLeg
		{
			OFFSET 0.577358 -80.825211 -3.695000
			CHANNELS 3 Xrotation Yrotation Zrotation
			JOINT mixamorig:LeftFoot
			{
				OFFSET -0.577356 -83.370262 -6.520700
				CHANNELS 3 Xrotation Yrotation Zrotation
				JOINT mixamorig:LeftToeBase
				{
					OFFSET 0.750401 -20.798306 25.135401
					CHANNELS 3 Xrotation Yrotation Zrotation
					JOINT mixamorig:LeftToe_End
					{
						OFFSET -0.000500 0.001200 19.917799
						CHANNELS 3 Xrotation Yrotation Zrotation
						End Site
						{
							OFFSET 0.000000 19.917805 0.000000
						}
					}
				}
			}
		}
	}
	JOINT mixamorig:RightUpLeg
	{
		OFFSET -18.162500 -13.585098 -0.041000
		CHANNELS 3 Xrotation Yrotation Zrotation
		JOINT mixamorig:RightLeg
		{
			OFFSET -0.595024 -80.945297 -3.631900
			CHANNELS 3 Xrotation Yrotation Zrotation
			JOINT mixamorig:RightFoot
			{
				OFFSET 0.595024 -83.218193 -6.561200
				CHANNELS 3 Xrotation Yrotation Zrotation
				JOINT mixamorig:RightToeBase
				{
					OFFSET -0.753601 -20.807106 25.115000
					CHANNELS 3 Xrotation Yrotation Zrotation
					JOINT mixamorig:RightToe_End
					{
						OFFSET 0.000299 0.001700 19.918200
						CHANNELS 3 Xrotation Yrotation Zrotation
						End Site
						{
							OFFSET 0.000000 19.918203 0.000000
						}
					}
				}
			}
		}
	}
}
MOTION
Frames: 4
Frame Time: 0.033333
0.093718 157.003815 1.761735 -3.129719 -6.148698 -8.690125 31.606239 -0.221349 10.441462 9.927364 -0.977731 3.704928 9.915760 -1.025228 3.723850 20.379848 -1.142218 13.581544 23.950594 -9.276933 33.105449 0.000000 0.000000 0.000000 0.000000 0.000000 0.000000 0.000000 0.000000 0.000000 0.598219 -5.371291 -9.096789 -49.255335 -15.675076 -75.282379 -0.000118 -79.992368 -0.000131 13.384540 5.829998 29.653242 -0.144205 -0.495929 -8.324414 2.737057 5.498152 -52.902967 1.987061 4.843079 -44.595712 -0.000001 -0.000002 0.000000 6.507675 10.394229 -12.491899 6.844005 19.586524 -1.556963 -1.637859 33.618150 8.290179 0.000000 -0.000001 -0.000000 0.449589 2.452247 -20.319801 2.683714 5.457605 -52.344343 0.537946 2.672676 -22.756548 -0.000002 0.000007 -0.000001 -0.264390 -2.206807 -6.069220 2.600785 5.392845 -51.467060 1.532954 4.336109 -38.925446 -0.000001 0.000000 0.000001 -0.370877 -3.748164 -5.454050 2.158759 0.922509 -46.740538 0.263311 1.889582 -15.865457 0.000000 0.000000 0.000002 0.801590 -0.103252 16.530518 -49.864752 42.840999 76.286444 -0.000040 68.464109 0.000021 4.182514 -3.374423 -8.404487 0.351686 -2.375315 12.106060 0.331656 -2.125770 17.733048 0.219540 -1.736800 14.407304 0.000001 -0.000002 -0.000001 -19.158474 13.162065 -21.689776 8.643549 -3.936221 2.449369 -7.416103 6.689844 2.473356 0.000000 0.000000 -0.000000 0.937308 -6.185724 9.192581 0.662937 -2.967908 25.177872 0.652550 -2.945687 24.976108 -0.000000 0.000003 -0.000004 -0.347921 1.520860 9.588470 0.717118 -3.080309 26.204313 0.219542 -1.736794 14.407336 -0.000001 -0.000003 0.000004 -0.118807 4.669976 1.726688 0.103454 -1.197406 9.875803 0.516934 -2.635423 22.191329 -0.000001 -0.000001 0.000001 -62.794806 -8.381263 10.870082 55.892630 5.245443 9.226896 10.462956 -0.627893 -11.783155 -1.633064 0.000000 0.000003 0.000000 -0.000000 -0.000000 -61.831988 -2.774801 -0.929706 54.206867 -4.432164 2.849312 15.933047 0.498761 4.809721 -2.731975 0.162381 -2.279685 -0.000000 0.000001 0.000000 
0.104906 157.003189 1.758158 -3.134789 -6.149339 -8.705720 31.601523 -0.212372 10.433008 9.925832 -0.975763 3.700023 9.914119 -1.024524 3.719032 20.376812 -1.143261 13.568378 23.958880 -9.272951 33.085064 0.000000 0.000000 -0.000003 0.000000 0.000000 -0.000003 0.000000 0.000000 -0.000003 0.597770 -5.372484 -9.123377 -49.283585 -15.686853 -75.312104 -0.000037 -79.969091 -0.000041 13.456411 5.838285 29.619631 -0.144226 -0.495911 -8.324401 2.737041 5.498142 -52.902991 1.987065 4.843082 -44.595702 -0.000002 -0.000002 0.000000 6.507681 10.394256 -12.491897 6.844002 19.586503 -1.556965 -1.637848 33.618174 8.290166 0.000001 0.000002 0.000003 0.449582 2.452267 -20.319799 2.683724 5.457583 -52.344336 0.537955 2.672687 -22.756541 -0.000002 -0.000001 0.000000 -0.264402 -2.206798 -6.069221 2.600778 5.392855 -51.467029 1.532969 4.336121 -38.925480 -0.000003 0.000004 0.000001 -0.370867 -3.748164 -5.454055 2.158727 0.922506 -46.740549 0.263328 1.889584 -15.865447 -0.000003 -0.000003 -0.000002 0.800206 -0.099369 16.493274 -49.868867 42.779992 76.332261 -0.000067 68.418292 0.000070 4.159113 -3.308930 -8.400823 0.351694 -2.375288 12.106027 0.331644 -2.125773 17.733034 0.219514 -1.736808 14.407338 0.000001 0.000000 0.000001 -19.158483 13.162072 -21.689790 8.643534 -3.936206 2.449355 -7.416103 6.689850 2.473379 -0.000001 -0.000000 0.000001 0.937314 -6.185695 9.192602 0.662955 -2.967882 25.177850 0.652522 -2.945693 24.976130 -0.000001 -0.000001 -0.000001 -0.347916 1.520880 9.588467 0.717096 -3.080324 26.204340 0.219553 -1.736799 14.407312 -0.000001 0.000001 0.000002 -0.118825 4.669977 1.726699 0.103446 -1.197419 9.875801 0.516939 -2.635420 22.191336 0.000000 -0.000001 0.000001 -62.796534 -8.384214 10.881334 55.901362 5.229724 9.226441 10.456729 -0.626356 -11.777579 -1.641586 -0.000001 0.000002 0.000000 -0.000000 -0.000000 -61.817802 -2.780586 -0.922260 54.196229 -4.434816 2.853040 15.917913 0.498465 4.812606 -2.710097 0.161560 -2.279916 -0.000000 -0.000000 -0.000000 
0.124247 157.001999 1.756695 -3.139620 -6.154308 -8.719238 31.601933 -0.212821 10.429238 9.925605 -0.976660 3.697389 9.913835 -1.025954 3.716477 20.373271 -1.140296 13.554770 23.948720 -9.251103 33.058273 0.000000 -0.000000 -0.000001 0.000000 -0.000000 -0.000001 0.000000 -0.000000 -0.000001 0.597465 -5.373396 -9.141407 -49.298328 -15.685132 -75.317985 0.000083 -79.962083 0.000088 13.492146 5.844775 29.595435 -0.144217 -0.495926 -8.324401 2.737043 5.498136 -52.902988 1.987058 4.843098 -44.595681 -0.000000 -0.000002 -0.000001 6.507668 10.394247 -12.491893 6.843995 19.586507 -1.556970 -1.637851 33.618164 8.290157 0.000000 -0.000001 0.000002 0.449590 2.452288 -20.319774 2.683733 5.457577 -52.344343 0.537951 2.672682 -22.756544 -0.000000 -0.000002 -0.000002 -0.264409 -2.206812 -6.069224 2.600785 5.392866 -51.467019 1.532980 4.336106 -38.925477 -0.000001 0.000001 0.000001 -0.370882 -3.748145 -5.454043 2.158762 0.922512 -46.740559 0.263324 1.889585 -15.865438 -0.000001 0.000001 0.000002 0.798859 -0.095024 16.458896 -49.908312 42.684383 76.442002 -0.000020 68.360802 0.000036 4.202542 -3.238339 -8.354315 0.351704 -2.375268 12.106050 0.331653 -2.125779 17.733043 0.219537 -1.736811 14.407338 0.000003 0.000001 0.000009 -19.158457 13.162084 -21.689800 8.643540 -3.936211 2.449368 -7.416125 6.689838 2.473372 0.000001 -0.000000 -0.000001 0.937329 -6.185683 9.192566 0.662961 -2.967887 25.177862 0.652531 -2.945694 24.976113 -0.000000 -0.000002 -0.000002 -0.347880 1.520895 9.588448 0.717087 -3.080320 26.204342 0.219562 -1.736778 14.407338 -0.000000 -0.000001 -0.000001 -0.118813 4.670000 1.726696 0.103458 -1.197375 9.875807 0.516934 -2.635437 22.191332 0.000002 -0.000000 -0.000002 -62.798173 -8.388808 10.887843 55.912752 5.223974 9.227043 10.448508 -0.624871 -11.773345 -1.649730 0.000000 0.000005 -0.000000 -0.000000 0.000000 -61.805405 -2.786626 -0.918371 54.185899 -4.429487 2.857130 15.906008 0.498070 4.814717 -2.690619 0.160725 -2.279320 -0.000000 -0.000000 -0.000000 
0.149164 157.001846 1.758612 -3.144798 -6.160856 -8.728657 31.602916 -0.217150 10.428410 9.925359 -0.978524 3.696369 9.913578 -1.027913 3.715521 20.369120 -1.137577 13.538699 23.928116 -9.244028 33.040176 -0.000000 0.000000 0.000001 -0.000000 0.000000 0.000001 -0.000000 0.000000 0.000001 0.597240 -5.377255 -9.156843 -49.301989 -15.683882 -75.306353 0.000020 -79.956817 0.000016 13.504699 5.840234 29.580586 -0.144205 -0.495939 -8.324403 2.737054 5.498151 -52.902971 1.987074 4.843075 -44.595709 -0.000001 0.000001 0.000001 6.507668 10.394265 -12.491903 6.844005 19.586496 -1.556959 -1.637851 33.618147 8.290150 -0.000001 0.000001 0.000000 0.449576 2.452264 -20.319787 2.683712 5.457588 -52.344336 0.537968 2.672681 -22.756532 -0.000002 0.000002 0.000002 -0.264396 -2.206807 -6.069228 2.600765 5.392886 -51.467033 1.532988 4.336110 -38.925477 0.000000 -0.000001 -0.000001 -0.370881 -3.748174 -5.454063 2.158760 0.922506 -46.740559 0.263323 1.889590 -15.865443 -0.000001 -0.000000 -0.000001 0.797772 -0.091586 16.430510 -49.966788 42.547250 76.598065 0.000017 68.295997 -0.000039 4.309219 -3.162850 -8.268764 0.351706 -2.375296 12.106031 0.331663 -2.125747 17.733051 0.219517 -1.736808 14.407331 0.000003 -0.000003 0.000004 -19.158447 13.162078 -21.689822 8.643552 -3.936221 2.449347 -7.416110 6.689857 2.473372 -0.000001 0.000001 -0.000003 0.937330 -6.185699 9.192604 0.662955 -2.967884 25.177846 0.652536 -2.945688 24.976108 -0.000000 -0.000002 0.000002 -0.347880 1.520886 9.588436 0.717074 -3.080339 26.204328 0.219551 -1.736799 14.407326 0.000000 0.000001 -0.000001 -0.118820 4.669992 1.726679 0.103446 -1.197416 9.875799 0.516934 -2.635411 22.191338 -0.000002 0.000001 0.000001 -62.798023 -8.391455 10.889623 55.924732 5.225767 9.227364 10.439247 -0.623500 -11.768383 -1.655060 -0.000008 0.000000 0.000000 -0.000000 -0.000000 -61.793760 -2.789578 -0.916193 54.176821 -4.422766 2.857789 15.896973 0.497797 4.817685 -2.676063 0.159938 -2.276658 -0.000000 -0.000001 0.000000 
